<svg version="1.1" id="Layer_1"
	xmlns="http://www.w3.org/2000/svg"
	xmlns:xlink="http://www.w3.org/1999/xlink" x="0px" y="0px" width="100%" viewBox="0 0 287 166" enable-background="new 0 0 287 166" xml:space="preserve">

	<path fill="#000" opacity="1.000000" stroke="none" d="
M254.332123,81.612793 
	C260.391998,92.444748 266.319733,102.934402 272.118774,113.494728 
	C276.480682,121.437996 280.686523,129.467133 284.933746,137.472961 
	C285.364166,138.284302 285.600647,139.198547 286.006439,140.275620 
	C271.026642,142.372864 256.862823,147.862106 241.754669,145.953018 
	C239.003342,145.605362 237.748779,146.649918 236.411865,148.981018 
	C228.089294,163.492462 220.326187,165.101990 204.389587,163.572739 
	C186.898499,161.894333 171.189270,154.161606 154.754623,148.882721 
	C133.865326,142.172989 112.653236,136.780746 90.851059,133.967499 
	C77.610535,132.259018 64.345551,130.734772 51.117069,128.939789 
	C40.191128,127.457230 33.320469,120.398285 30.541866,110.519447 
	C26.982319,97.864098 27.447855,84.655357 28.491571,70.904404 
	C26.655767,71.157074 24.603224,71.234230 22.669201,71.753128 
	C19.645712,72.564339 16.764238,74.031357 13.708308,74.560600 
	C10.466497,75.122032 7.091304,74.913292 3.774362,75.040901 
	C4.101740,71.573158 3.381454,67.531792 4.917717,64.725937 
	C21.213984,34.962238 45.293449,14.699941 78.803162,7.236108 
	C88.051262,5.176220 97.859703,5.453513 107.427513,5.038444 
	C148.576096,3.253342 183.945068,18.836142 216.439728,42.232635 
	C231.276352,52.915150 243.556686,66.365280 254.332123,81.612793 
M251.181427,91.530357 
	C251.570770,91.577705 251.960114,91.625061 252.349457,91.672409 
	C252.137680,91.231155 251.925903,90.789894 251.317459,89.778130 
	C250.057205,88.287254 249.096069,86.143410 247.489914,85.407661 
	C233.228622,78.874931 218.398865,74.421165 202.504883,76.123749 
	C194.145126,77.019241 185.801834,78.658615 177.469040,84.223358 
	C179.477585,83.821915 180.258102,83.715141 181.011047,83.508141 
	C196.051941,79.373116 211.306793,78.379211 226.440887,82.210129 
	C234.816956,84.330376 242.782028,88.074173 251.181427,91.530357 
M225.867508,148.381577 
	C226.763947,146.832062 227.660385,145.282547 228.551727,143.741852 
	C222.013855,141.150330 215.668488,138.868713 209.515808,136.150909 
	C193.340912,129.006058 179.797012,117.879379 165.706665,107.462814 
	C150.558945,96.264580 135.567810,84.760002 115.368698,82.961510 
	C96.689148,81.298317 78.138016,77.972633 59.616646,74.864746 
	C52.511482,73.672508 44.559132,74.916084 38.623535,68.507347 
	C35.700180,81.876144 36.527992,94.704941 39.432159,107.239525 
	C40.788502,113.093582 44.185951,118.426758 51.665833,119.299873 
	C65.895775,120.960922 80.188812,122.456718 94.246910,125.122055 
	C112.839302,128.647079 131.331436,132.832581 149.681808,137.466278 
	C168.966080,142.335800 186.660614,152.472107 206.890305,154.551849 
	C214.224457,155.305862 220.244385,154.106735 225.867508,148.381577 
M110.134262,76.622177 
	C94.278320,69.112000 62.516640,64.521576 47.737759,67.721077 
	C49.417839,68.193901 50.794666,68.737206 52.221447,68.958572 
	C65.067795,70.951721 77.923325,72.885635 90.775269,74.842781 
	C97.424385,75.855339 104.071220,76.883080 110.724937,77.864243 
	C110.817406,77.877869 110.986328,77.372986 111.119560,77.110107 
	C110.965561,77.046928 110.811562,76.983742 110.134262,76.622177 
M144.207413,14.226601 
	C142.919479,14.479800 141.641800,14.864993 140.342041,14.965992 
	C125.684753,16.104948 112.280785,20.782108 100.345093,29.373325 
	C94.672371,33.456509 89.350357,37.980682 86.695351,44.981121 
	C94.981430,36.182259 104.738373,29.662413 115.626297,24.683687 
	C126.600388,19.665567 138.110916,17.237001 150.259369,16.160124 
	C148.488739,15.607920 146.718109,15.055717 144.207413,14.226601 
M196.475708,54.014175 
	C205.351257,55.107540 214.226822,56.200909 222.945389,57.274937 
	C214.145370,48.015038 172.303848,47.622272 153.067886,63.614197 
	C166.667130,57.872784 180.809860,54.618690 196.475708,54.014175 
M178.068512,29.039463 
	C153.867798,28.745352 127.455757,37.757915 123.323135,48.327209 
	C143.347275,34.764557 164.870026,29.454210 188.513885,33.180988 
	C188.536331,32.619812 188.558777,32.058640 188.581223,31.497463 
	C185.377762,30.706768 182.174286,29.916073 178.068512,29.039463 
M93.750381,11.108444 
	C79.805023,16.575327 68.755302,25.396532 61.670723,38.908005 
	C74.794144,25.295618 89.824821,14.776045 108.342033,9.736487 
	C108.195137,9.289386 108.048241,8.842284 107.901337,8.395182 
	C103.438583,9.212193 98.975822,10.029204 93.750381,11.108444 
M210.401337,108.000725 
	C219.416016,109.346817 228.430695,110.692902 237.472824,112.043091 
	C238.305435,108.015266 238.077347,107.639709 234.104523,107.027458 
	C232.647781,106.802956 231.202209,106.472008 229.737930,106.335861 
	C219.443710,105.378738 209.109283,103.662338 197.900284,108.000443 
	C202.508408,108.000443 205.976700,108.000443 210.401337,108.000725 
M246.027588,110.499535 
	C245.046021,110.919281 243.545807,111.108063 243.227386,111.823112 
	C242.902817,112.551964 243.458527,114.430733 244.111954,114.721947 
	C252.159912,118.308777 260.296478,121.696770 268.494446,125.171814 
	C267.142517,119.731506 263.311279,117.140396 258.737457,115.359550 
	C254.755035,113.808975 250.740952,112.339737 246.027588,110.499535 
M41.980312,35.422844 
	C45.102470,32.317390 48.224628,29.211939 51.346790,26.106485 
	C50.832851,25.625032 50.318916,25.143581 49.804977,24.662128 
	C46.694035,27.860647 43.569485,31.046463 40.526020,34.307949 
	C40.413891,34.428116 41.094521,35.288044 41.980312,35.422844 
M119.830055,50.199329 
	C120.102310,50.283066 120.374573,50.366806 120.646828,50.450542 
	C120.479988,50.239201 120.313141,50.027863 119.830055,50.199329 
M84.649521,47.342690 
	C84.762947,47.039112 84.876373,46.735535 84.989799,46.431961 
	C84.753036,46.628227 84.516273,46.824497 84.649521,47.342690 
M60.049770,41.041954 
	C59.959034,40.797226 59.868298,40.552502 59.777557,40.307774 
	C59.631382,40.382225 59.351398,40.489189 59.360329,40.525959 
	C59.428120,40.804996 59.552475,41.070293 60.049770,41.041954 
M39.044846,38.053089 
	C38.880596,37.842434 38.716347,37.631783 38.552094,37.421127 
	C38.586231,37.731884 38.620369,38.042645 39.044846,38.053089 
M52.252441,23.788477 
	C52.531960,23.838568 52.811474,23.888659 53.090992,23.938749 
	C52.891113,23.738203 52.691235,23.537657 52.252441,23.788477 
z"/>
</svg>